<svg id="Layer_1" data-name="Layer 1" xmlns="http://www.w3.org/2000/svg" viewBox="0 0 238 382"><defs><style>.cls-1{fill:#f08080;}.cls-1,.cls-2{stroke:#f08080;stroke-miterlimit:10;stroke-width:15px;}.cls-2{fill:none;}.cls-3{fill:#f8ad9d;}.cls-4{fill:#f7f7f7;}</style></defs><path class="cls-1" d="M163.44,433.5H336.56a25,25,0,0,0,24.94-24.94V379.5h-223v29.06A25,25,0,0,0,163.44,433.5Z" transform="translate(-131 -59)"/><rect class="cls-2" x="7.5" y="49.5" width="223" height="271"/><path class="cls-1" d="M336.56,66.5H163.44A25,25,0,0,0,138.5,91.44V108.5h223V91.44A25,25,0,0,0,336.56,66.5Z" transform="translate(-131 -59)"/><circle class="cls-3" cx="119" cy="345" r="18.5"/><circle class="cls-3" cx="119" cy="185.08" r="88.08"/><path class="cls-4" d="M305.67,231.49h-4.31a53.11,53.11,0,0,0-5.93-14.41l3.26-3.29a7.38,7.38,0,0,0,0-10.4l0,0-7.76-7.81a7.28,7.28,0,0,0-10.34,0l0,0-3.27,3.29A51.86,51.86,0,0,0,263,192.9v-4.69a7.31,7.31,0,0,0-7.31-7.32h-11a7.32,7.32,0,0,0-7.32,7.32V194a53.79,53.79,0,0,0-14.4,5.79l-3.29-3.19a7.52,7.52,0,0,0-10.41,0h0l-7.8,7.58a7,7,0,0,0,0,10.1l0,0,3.28,3.19a50.31,50.31,0,0,0-5.94,14h-4.7a7.31,7.31,0,0,0-7.31,7.31v10.36a7.31,7.31,0,0,0,7.31,7.32H200a53.79,53.79,0,0,0,5.79,14.4l-3.19,3.29a7.53,7.53,0,0,0,0,10.41l0,0,7.58,7.8a7,7,0,0,0,10.09,0l0,0,3.19-3.28a50.44,50.44,0,0,0,14,5.94v4.7a7.31,7.31,0,0,0,7.32,7.31h10.36a7.31,7.31,0,0,0,7.31-7.31v-4.32a52.8,52.8,0,0,0,14.41-5.93l3.29,3.27a7.38,7.38,0,0,0,10.4,0l0,0,7.81-7.76a7.29,7.29,0,0,0,0-10.35h0L295,271.39a52.11,52.11,0,0,0,6-14.3h4.69a7.32,7.32,0,0,0,7.32-7.32v-11A7.31,7.31,0,0,0,305.67,231.49ZM250,269a24.92,24.92,0,1,1,24.92-24.92A24.92,24.92,0,0,1,250,269Z" transform="translate(-131 -59)"/><circle class="cls-3" cx="71" cy="28.75" r="8"/><rect class="cls-3" x="95" y="20.25" width="80" height="16" rx="8"/></svg>