<svg xmlns="http://www.w3.org/2000/svg" id="Layer_1" data-name="Layer 1" viewBox="0 0 384.48 284.92"><defs><style>.cls-1{fill:#f8ad9d}.cls-2{fill:#f08080}.cls-3{fill:#f7f7f7}.cls-4{fill:#f7a294}</style></defs><polygon points="45.13 210.91 45.13 70.12 189.53 144.13 189.53 284.92 45.13 210.91" class="cls-1"/><polygon points="333.94 210.91 333.94 70.12 189.53 144.13 189.53 284.92 333.94 210.91" class="cls-2"/><polygon points="45.13 70.12 189.53 0 333.94 70.12 189.53 144.13 45.13 70.12" class="cls-1"/><ellipse cx="189.53" cy="72.06" class="cls-1" rx="76.27" ry="48.74"/><path d="M295.7,172.71h-5.05a25.32,25.32,0,0,0-5-8l2.77-1.82c2.41-1.58,2.42-4.16,0-5.75h0l-6.56-4.32a8.6,8.6,0,0,0-8.75,0h0l-2.76,1.82a59.07,59.07,0,0,0-12.09-3.3v-2.59c0-2.24-2.84-4.05-6.34-4.05h-9c-3.5,0-6.33,1.81-6.33,4.05v2.38a62.94,62.94,0,0,0-12.48,3.29l-2.84-1.81a9.17,9.17,0,0,0-9,0h0l-6.76,4.29c-2.49,1.58-2.5,4.14,0,5.73h0l2.85,1.8a24.91,24.91,0,0,0-5.16,7.92h-4.06c-3.5,0-6.33,1.81-6.33,4v6.08c0,2.23,2.83,4,6.33,4h3.74a25.07,25.07,0,0,0,5.13,8l-2.83,1.82c-2.47,1.59-2.48,4.17,0,5.76h0l6.72,4.32a9,9,0,0,0,9,0h0l2.83-1.82a60.65,60.65,0,0,0,12.38,3.29v2.6c0,2.23,2.83,4,6.33,4h9.5c3.5,0,6.34-1.82,6.34-4v-3.23a64.17,64.17,0,0,0,12.47-3.2l2.85,1.76a9.34,9.34,0,0,0,9,0h0l6.76-4.19c2.5-1.54,2.5-4,0-5.59h0l-2.84-1.76a24.25,24.25,0,0,0,5.15-7.73h4.06c3.5,0,6.34-1.81,6.34-4v-5.74C302,174.53,299.2,172.71,295.7,172.71Zm-48.41,20.68c-11.91,0-21.58-6.17-21.58-13.79s9.67-13.79,21.58-13.79,21.58,6.18,21.58,13.79S259.21,193.39,247.29,193.39Z" class="cls-3" transform="translate(-57.76 -107.54)"/><polygon points="45.13 70.12 0 122.61 138.99 202.03 189.53 144.13 45.13 70.12" class="cls-4"/><polygon points="240.07 202.03 189.53 144.27 333.94 70.12 384.48 128.02 240.07 202.03" class="cls-4"/></svg>