<svg xmlns="http://www.w3.org/2000/svg" id="Layer_1" data-name="Layer 1" viewBox="0 0 270.22 223.79"><defs><style>.cls-1{fill:#f08080}.cls-2{fill:#f8ad9d}.cls-3{fill:#fdfdfd}</style></defs><path d="M274.23,361.89q-34.46,0-68.9,0a31.18,31.18,0,0,1-7-.52c-4.13-1-6.45-3.76-6.6-8.1-.17-4.71,2.38-7.64,6.68-8.81,2.22-.61,4.69-.4,7-.4q69.6,0,139.2,0c8.08,0,14.18-3.33,18.05-10.36,3.75-6.81,3.37-13.72-.76-20.19-4.34-6.79-11-9.24-18.83-9.22-26.52.06-53,.21-79.55-.09-15.44-.18-26.62-8.08-33-21.83s-4.47-27.3,5.21-39.21c6.56-8.06,15.21-12.74,25.72-13.18,8-.33,16.1-.32,24.14-.16,6,.12,10.16,4,9.6,9-.62,5.43-3.9,8.45-9.52,8.49-6.16,0-12.31,0-18.47,0-13.81,0-22.74,7.74-22.83,19.7s8.88,20,22.51,20c26.28,0,52.56-.13,78.83.07,18.26.14,34.17,14.15,36.47,31.58,2.5,19-8,35.75-25.81,41.37a48.52,48.52,0,0,1-14.72,1.84Z" class="cls-1" transform="translate(-114.89 -138.11)"/><path d="M385.11,180.21c-.08,8.54-2.5,15.45-5.12,22.29-7.87,20.54-18.4,39.77-29.35,58.78-4.7,8.16-13.6,8.68-18.17.79-12.76-22-25.46-44.15-32.91-68.71-5.3-17.46-.23-32.4,13.12-44.1,13.91-12.18,30.22-14.34,46.93-6.69C375.82,150,383.94,163.53,385.11,180.21ZM321,182.11A20.4,20.4,0,0,0,341,202.68a20.64,20.64,0,0,0,20.71-20.78,20.23,20.23,0,0,0-20.58-20A19.93,19.93,0,0,0,321,182.11Z" class="cls-2" transform="translate(-114.89 -138.11)"/><path d="M114.89,275.3c1.56-18.65,9.75-32.2,26.47-39.54s32.65-4.84,46.25,7.07c13.37,11.71,18.17,26.8,12.9,44.18-7.45,24.56-20.23,46.65-32.92,68.72-4,7-13,7.42-16.94.63C137,333,123.3,309.5,116.19,283A72.17,72.17,0,0,1,114.89,275.3ZM159,295.7a20,20,0,0,0,20.18-20.26,20.27,20.27,0,0,0-20.08-20.52,20.66,20.66,0,0,0-20.71,20.79A20.27,20.27,0,0,0,159,295.7Z" class="cls-2" transform="translate(-114.89 -138.11)"/><path d="M321,182.11a19.93,19.93,0,0,1,20.2-20.21,20.23,20.23,0,0,1,20.58,20A20.64,20.64,0,0,1,341,202.68,20.4,20.4,0,0,1,321,182.11Z" class="cls-3" transform="translate(-114.89 -138.11)"/><path d="M159,295.7a20.27,20.27,0,0,1-20.61-20,20.66,20.66,0,0,1,20.71-20.79,20.27,20.27,0,0,1,20.08,20.52A20,20,0,0,1,159,295.7Z" class="cls-3" transform="translate(-114.89 -138.11)"/></svg>