<svg xmlns="http://www.w3.org/2000/svg" id="Layer_1" data-name="Layer 1" viewBox="0 0 335.13 241.67"><defs><style>.cls-1{fill:#f08080}.cls-2{fill:#f8ad9d}.cls-3{fill:#fdfdfd}</style></defs><path d="M249.73,370.74h-145c-11,0-19.93-7-21.92-17a21.28,21.28,0,0,1,18.75-25.12c1.18-.11,2.38-.14,3.57-.14q144.63,0,289.28,0c9.5,0,16.8,3.74,21.06,12.33,6.36,12.82-2.61,28.39-17,29.83a45.67,45.67,0,0,1-4.68.21H249.73Zm44.39-28.68H205.91v15.15h88.21Z" class="cls-1" transform="translate(-82.43 -129.16)"/><path d="M124.08,324.19H109c-.51-.51-.3-1.14-.3-1.7q0-82.11,0-164.21a29.46,29.46,0,0,1,20.2-27.71,28.75,28.75,0,0,1,9-1.39q112.16,0,224.3,0c4.55,0,9.12.74,12.9,2.9,10.26,5.86,16.26,14.68,16.27,26.92v48.26q0,57.19,0,114.38v2.53H375.87v-2.88q0-80.65,0-161.3c0-5.2-1.49-9.83-6.19-12.79a15.16,15.16,0,0,0-8.2-2.69q-111.48,0-223,.06c-6,0-10.38,2.69-12.93,8.47a15.24,15.24,0,0,0-1.47,6.31q0,81.76,0,163.54Z" class="cls-1" transform="translate(-82.43 -129.16)"/><path d="M224,290.57l-27.82-27.84,74.12-74.12,27.82,27.84Q261.21,253.4,224,290.57Z" class="cls-2" transform="translate(-82.43 -129.16)"/><path d="M255.58,270.81l6.13-6.21c3.46,2.58,3.66,2.56,6.57-.4,2.3-2.34,2.29-2.59-.27-5.94l15.69-15.64c.72.13,1.09.83,1.59,1.33q14.93,14.88,29.82,29.81c6,6.05,6,14.62,0,20.7-2.67,2.7-5.33,5.41-8.05,8.05a14,14,0,0,1-19.72.15c-10.5-10.32-20.85-20.8-31.27-31.22A4.93,4.93,0,0,1,255.58,270.81Zm31.27-6.07a4.26,4.26,0,0,0-2.48-3.06,2.55,2.55,0,0,0-3.21.73c-2.82,2.86-5.71,5.66-8.52,8.52-1.59,1.63-1.47,2.89.27,4.58s2.79,1.62,4.4,0c2.81-2.76,5.57-5.57,8.38-8.34A3.42,3.42,0,0,0,286.85,264.74Zm20.41,20.63a4.3,4.3,0,0,0-2.6-3.33c-1.27-.7-2.26,0-3.16.88-2.78,2.79-5.59,5.55-8.35,8.36-1.65,1.7-1.59,2.86.11,4.57s2.89,1.68,4.58,0c2.81-2.76,5.58-5.56,8.36-8.34A2.88,2.88,0,0,0,307.26,285.37Zm-20.27-7c-1.14-.05-1.83.42-3.87,2.52-1.8,1.86-1.83,3-.12,4.71s2.87,1.78,4.7,0c.54-.52,1-1.07,1.58-1.57a2.52,2.52,0,0,0,.76-3.19A4.23,4.23,0,0,0,287,278.35Z" class="cls-2" transform="translate(-82.43 -129.16)"/><path d="M222.44,225.18l-6.39,6.12c-.54-.08-.91-.79-1.4-1.29q-14.79-14.74-29.55-29.52c-6.36-6.37-6.39-14.83-.07-21.19,2.67-2.69,5.32-5.42,8.08-8a13.92,13.92,0,0,1,19.56.09c10.49,10.35,20.86,20.82,31.28,31.24a2.55,2.55,0,0,1,.3.41L228.51,218.8c-3.3-2.51-3.53-2.49-6.73.88C219.89,221.66,220,222.3,222.44,225.18Zm-17.26-42a4.43,4.43,0,0,0-2.46-3.2,2.48,2.48,0,0,0-3.21.67c-2.78,2.79-5.58,5.55-8.34,8.36-1.71,1.72-1.72,3-.15,4.57,1.77,1.82,2.91,1.88,4.71.12,2.82-2.75,5.58-5.56,8.37-8.34A3.25,3.25,0,0,0,205.18,183.21Zm20.36,20.16a4.32,4.32,0,0,0-2.64-3.05c-1.15-.59-2.15,0-3,.81-2.84,2.84-5.7,5.65-8.51,8.52-1.61,1.65-1.51,2.85.24,4.56s2.82,1.65,4.41.09c2.86-2.8,5.68-5.67,8.52-8.5A3,3,0,0,0,225.54,203.37Zm-20.41-6.71c-1.85,0-2.65,1.53-3.73,2.58-1.82,1.78-1.79,3-.05,4.7s2.85,1.71,4.7-.08c.53-.51,1-1.06,1.57-1.56a2.48,2.48,0,0,0,.69-3.21C207.61,197.89,206.71,196.75,205.13,196.66Z" class="cls-2" transform="translate(-82.43 -129.16)"/><path d="M303.31,212l-28-28.08c4.08-4.24,8-8.8,12.46-12.81,3.65-3.3,9.4-2.81,13,.69,4.88,4.68,9.63,9.51,14.37,14.34a10.43,10.43,0,0,1-.66,14.73C310.63,204.44,307.05,208.29,303.31,212Zm-.08-7.43c2.73-2.69,5.61-5.36,8.3-8.23a4.86,4.86,0,0,0-.2-6.71q-6.93-7.11-14.06-14a4.87,4.87,0,0,0-6.72-.17c-2.88,2.66-5.58,5.5-8.28,8.18Z" class="cls-2" transform="translate(-82.43 -129.16)"/><path d="M182.07,300.86c.85-4,1.79-8.43,2.75-12.86q1.74-8.07,3.52-16.13c.32-1.48.68-3,2.39-3.45s2.64.7,3.65,1.71L217,292.72c1,1,2.07,2.1,1.54,3.69s-2,1.91-3.38,2.21q-14.06,3.06-28.12,6.09C183.94,305.37,182.05,304,182.07,300.86Zm10.64-24.76c-1.68,7.77-3.31,15.34-5,23.18l23.12-5.06Z" class="cls-2" transform="translate(-82.43 -129.16)"/><path d="M294.12,342.06v15.15H205.91V342.06Z" class="cls-3" transform="translate(-82.43 -129.16)"/><path d="M286.85,264.74a3.42,3.42,0,0,1-1.16,2.47c-2.81,2.77-5.57,5.58-8.38,8.34-1.61,1.58-2.77,1.53-4.4,0s-1.86-2.95-.27-4.58c2.81-2.86,5.7-5.66,8.52-8.52a2.55,2.55,0,0,1,3.21-.73A4.26,4.26,0,0,1,286.85,264.74Z" class="cls-3" transform="translate(-82.43 -129.16)"/><path d="M307.26,285.37a2.88,2.88,0,0,1-1.06,2.16c-2.78,2.78-5.55,5.58-8.36,8.34-1.69,1.66-2.95,1.62-4.58,0s-1.76-2.87-.11-4.57c2.76-2.81,5.57-5.57,8.35-8.36.9-.89,1.89-1.58,3.16-.88A4.3,4.3,0,0,1,307.26,285.37Z" class="cls-3" transform="translate(-82.43 -129.16)"/><path d="M287,278.35a4.23,4.23,0,0,1,3.05,2.5,2.52,2.52,0,0,1-.76,3.19c-.55.5-1,1-1.58,1.57-1.83,1.75-3,1.74-4.7,0s-1.68-2.85.12-4.71C285.16,278.77,285.85,278.3,287,278.35Z" class="cls-3" transform="translate(-82.43 -129.16)"/><path d="M205.18,183.21a3.25,3.25,0,0,1-1.08,2.18c-2.79,2.78-5.55,5.59-8.37,8.34-1.8,1.76-2.94,1.7-4.71-.12-1.57-1.62-1.56-2.85.15-4.57,2.76-2.81,5.56-5.57,8.34-8.36a2.48,2.48,0,0,1,3.21-.67A4.43,4.43,0,0,1,205.18,183.21Z" class="cls-3" transform="translate(-82.43 -129.16)"/><path d="M225.54,203.37a3,3,0,0,1-1,2.43c-2.84,2.83-5.66,5.7-8.52,8.5-1.59,1.56-2.79,1.49-4.41-.09s-1.85-2.91-.24-4.56c2.81-2.87,5.67-5.68,8.51-8.52.85-.84,1.85-1.4,3-.81A4.32,4.32,0,0,1,225.54,203.37Z" class="cls-3" transform="translate(-82.43 -129.16)"/><path d="M205.13,196.66c1.58.09,2.48,1.23,3.18,2.43a2.48,2.48,0,0,1-.69,3.21c-.53.5-1,1-1.57,1.56-1.85,1.79-3,1.81-4.7.08s-1.77-2.92.05-4.7C202.48,198.19,203.28,196.68,205.13,196.66Z" class="cls-3" transform="translate(-82.43 -129.16)"/><path d="M303.23,204.6l-21-21c2.7-2.68,5.4-5.52,8.28-8.18a4.87,4.87,0,0,1,6.72.17q7.13,6.93,14.06,14a4.86,4.86,0,0,1,.2,6.71C308.84,199.24,306,201.91,303.23,204.6Z" class="cls-3" transform="translate(-82.43 -129.16)"/><path d="M192.71,276.1l18.12,18.12-23.12,5.06C189.4,291.44,191,283.87,192.71,276.1Z" class="cls-3" transform="translate(-82.43 -129.16)"/></svg>