<svg xmlns="http://www.w3.org/2000/svg" viewBox="0 0 1200 700" role="img">
  <defs>
    <linearGradient id="sky" x1="0" y1="0" x2="0" y2="1">
      <stop offset="0" stop-color="#f0ecec"/>
      <stop offset="1" stop-color="#ffffff"/>
    </linearGradient>
    <linearGradient id="lake" x1="0" y1="0" x2="1" y2="0">
      <stop stop-color="#c9d8f3"/>
      <stop offset="1" stop-color="#bfe6e1"/>
    </linearGradient>
    <linearGradient id="lawn" x1="0" y1="0" x2="1" y2="0">
      <stop stop-color="#cfe8da"/>
      <stop offset="1" stop-color="#bfe6e1"/>
    </linearGradient>
    <filter id="soft" x="-20%" y="-20%" width="140%" height="140%">
      <feDropShadow dx="0" dy="12" stdDeviation="16" flood-color="#56494c" flood-opacity=".10"/>
    </filter>
  </defs>
  <path fill="url(#sky)" d="M0 0h1200v700H0z"/>
  <g fill="#fff" opacity=".88">
    <path d="M73 148c23-42 81-44 107-3 37-26 89-3 91 42H42c0-22 12-35 31-39Z"/>
    <path d="M837 98c22-39 77-41 102-3 35-24 84-3 87 39H808c1-20 12-33 29-36Z"/>
    <path d="M505 74c13-23 46-25 61-2 21-15 51-2 52 23H487c1-12 7-20 18-21Z"/>
  </g>
  <path fill="url(#lawn)" d="M0 418c116-49 236-65 361-39 135 28 228 88 381 59 176-34 278-14 458 37v225H0Z"/>
  <path fill="#eef0e7" d="M0 510c147-37 281-40 405 16 119 53 215 58 336 25 173-48 296-30 459 21v128H0Z"/>
  <path fill="url(#lake)" d="M0 566c154-33 295-25 432 22 125 43 270 34 394 1 137-36 251-37 374-5v116H0Z"/>
  <path fill="#dff5fa" opacity=".75" d="M90 617c176-25 294-3 424 17 155 24 302-17 486-25-135 24-262 66-440 55-197-13-290-51-470-47Z"/>
  <g filter="url(#soft)">
    <path fill="#f7f4ec" d="M199 277h234v210H199z"/>
    <path fill="#d6e2e8" d="M219 303h194v20H219zm0 44h194v20H219zm0 44h194v20H219zm0 44h194v20H219z"/>
    <path fill="#fff" d="M453 244h289v243H453z"/>
    <path fill="#cbdce5" d="M476 276h52v56h-52zm65 0h52v56h-52zm65 0h52v56h-52zm65 0h48v56h-48zm-195 72h52v56h-52zm65 0h52v56h-52zm65 0h52v56h-52zm65 0h48v56h-48z"/>
    <path fill="#f8ad9d" d="M606 424h52v63h-52z"/>
  </g>
  <g transform="translate(820 110)" filter="url(#soft)">
    <path fill="#d7d5ce" d="M105 41h23v316h-23z"/>
    <path fill="#c8c8c2" d="m78 41 38-31 39 31-11 57H89Z"/>
    <path fill="#f8e7af" d="M110 97h13v261h-13z" opacity=".7"/>
    <path fill="#eeeee8" d="m77 40 19-31h40l20 31-13 58H90Z"/>
    <path fill="#56494c" d="m95 14 19-13 21 13-7 12h-27Z" opacity=".22"/>
  </g>
  <g>
    <g transform="translate(60 329)">
      <path fill="#356f4b" d="M75 4c45 0 75 35 68 75 35 17 29 78-14 84H15c-35-10-32-61-2-74C-4 44 25 5 75 4Z"/>
      <path fill="#664936" d="M67 126h17v102H67z"/>
      <circle cx="29" cy="70" r="38" fill="#77b65d"/><circle cx="102" cy="65" r="42" fill="#91c86d"/><circle cx="69" cy="39" r="48" fill="#83be62"/>
    </g>
    <g transform="translate(1010 351) scale(.82)">
      <path fill="#356f4b" d="M75 4c45 0 75 35 68 75 35 17 29 78-14 84H15c-35-10-32-61-2-74C-4 44 25 5 75 4Z"/>
      <path fill="#664936" d="M67 126h17v102H67z"/>
      <circle cx="29" cy="70" r="38" fill="#77b65d"/><circle cx="102" cy="65" r="42" fill="#91c86d"/><circle cx="69" cy="39" r="48" fill="#83be62"/>
    </g>
  </g>
  <g transform="translate(775 487)">
    <circle cx="25" cy="19" r="16" fill="#f0b49d"/>
    <path fill="#56494c" d="M6 39h39l10 77H-2Z"/>
    <path fill="#f8ad9d" d="M38 43h31l20 65-31 9Z"/>
    <path fill="#17324d" d="m10 113 18 1-9 72H2zm29 0 17-2 17 70-16 4Z"/>
    <path fill="#f8e7af" d="m64 52 28 14-11 32-27-13Z"/>
  </g>
  <g transform="translate(908 512) scale(.82)">
    <circle cx="25" cy="19" r="16" fill="#e9a98d"/>
    <path fill="#ded2f4" d="M6 39h39l10 77H-2Z"/>
    <path fill="#17324d" d="m10 113 18 1-9 72H2zm29 0 17-2 17 70-16 4Z"/>
    <path fill="#f0ecec" d="m-7 49 23 4-7 52-25-4Z"/>
  </g>
</svg>
