<svg id="Layer_1" data-name="Layer 1" xmlns="http://www.w3.org/2000/svg" viewBox="0 0 468.71 280.29"><defs><style>.cls-1,.cls-5,.cls-9{fill:#f9ae9e;}.cls-1{opacity:0.5;}.cls-10,.cls-2{fill:#fff;}.cls-3{fill:#e5e5e5;}.cls-11,.cls-12,.cls-4{fill:none;}.cls-11,.cls-4{stroke:#ef8080;}.cls-10,.cls-11,.cls-4{stroke-miterlimit:10;}.cls-4{stroke-width:2px;}.cls-6{fill:#f7f8f8;}.cls-7,.cls-8{fill:#6c757d;}.cls-8{opacity:0.43;}.cls-9{opacity:0.25;}.cls-10{stroke:#d7d7d9;}.cls-12{stroke:#6c757d;stroke-linecap:round;stroke-linejoin:round;stroke-width:5px;}.cls-13{fill:#dc3645;}.cls-14{fill:#426db4;}.cls-15{fill:#30c4ea;}.cls-16{fill:#168754;}.cls-17{fill:#fec111;}</style></defs><path class="cls-1" d="M298.63,147.64c-66,3.73-79.73-35.24-145.4-28.16-43,4.64-71.52,25.08-77.79,29.74-10.15,7.55-34.1,27.35-48.65,61.07-16,37.17-27.52,107.22,17.82,152.87C71,389.74,115,406.37,153.8,395.34c60.52-17.19,64.74-89.28,105.18-90.23,44.14-1,53.24,84.54,111.49,93.11,43,6.32,95.31-31.83,108-77.59,6.82-24.49.39-44.36-10.35-77.58-12.24-37.87-32.19-99.6-77.58-113.8C358.46,119.2,351.05,144.68,298.63,147.64Z" transform="translate(-12.62 -118.62)"/><path class="cls-2" d="M434.86,141H158V374.89H434.86a11.82,11.82,0,0,0,11.82-11.82V152.86A11.82,11.82,0,0,0,434.86,141Z" transform="translate(-12.62 -118.62)"/><path class="cls-3" d="M63.65,141a11.82,11.82,0,0,0-11.82,11.82V363.07a11.82,11.82,0,0,0,11.82,11.82H158V141Z" transform="translate(-12.62 -118.62)"/><rect class="cls-4" x="39.21" y="22.42" width="394.85" height="233.85" rx="11.82"/><circle class="cls-5" cx="59.52" cy="42.22" r="12.08"/><path class="cls-6" d="M79.79,159.09h-.63a7.37,7.37,0,0,0-.81-2l.44-.44a1,1,0,0,0,0-1.42h0l-1.06-1.07a1,1,0,0,0-1.42,0h0l-.45.45a7,7,0,0,0-2-.81v-.63a1,1,0,0,0-1-1H71.39a1,1,0,0,0-1,1v.63a7.31,7.31,0,0,0-2,.81l-.45-.45a1,1,0,0,0-1.42,0h0l-1.07,1.07a1,1,0,0,0,0,1.42h0l.45.45a7.31,7.31,0,0,0-.81,2H64.5a1,1,0,0,0-1,1v1.5a1,1,0,0,0,1,1h.63a7.31,7.31,0,0,0,.81,2l-.44.45a1,1,0,0,0,0,1.42h0l1.06,1.06a1,1,0,0,0,1.42,0h0l.45-.44a7.65,7.65,0,0,0,2,.81v.63a1,1,0,0,0,1,1H72.9a1,1,0,0,0,1-1v-.63a7.34,7.34,0,0,0,2-.82l.45.45a1,1,0,0,0,1.42,0h0l1.07-1.06a1,1,0,0,0,0-1.42h0l-.45-.45a7.31,7.31,0,0,0,.81-2h.63a1,1,0,0,0,1-1v-1.5A1,1,0,0,0,79.79,159.09Zm-7.64,5.17a3.42,3.42,0,1,1,3.41-3.42A3.42,3.42,0,0,1,72.15,164.26Z" transform="translate(-12.62 -118.62)"/><path class="cls-5" d="M90.5,152.46h3.55v11.46c0,2.55,1.32,3.88,3.58,3.88s3.6-1.33,3.6-3.88V152.46h3.58V163.9c0,4.88-3.35,7.27-7.23,7.27s-7.08-2.39-7.08-7.27Z" transform="translate(-12.62 -118.62)"/><path class="cls-5" d="M108.24,152.46h4l5.64,13.77,5.63-13.77h4V171H124v-12l-4.75,12h-2.69l-4.77-12v12h-3.55Z" transform="translate(-12.62 -118.62)"/><path class="cls-5" d="M137.17,171.17c-3.68,0-6.52-2-6.57-5.52h3.81a2.47,2.47,0,0,0,2.69,2.47c1.67,0,2.66-.93,2.66-2.26,0-4-9.13-1.59-9.11-8.31,0-3.34,2.59-5.36,6.25-5.36s6.11,1.94,6.34,5.28h-3.91a2.37,2.37,0,0,0-2.54-2.2,2.09,2.09,0,0,0-2.43,2.18c0,3.71,9.08,1.64,9.08,8.17C143.44,168.54,141.21,171.17,137.17,171.17Z" transform="translate(-12.62 -118.62)"/><rect class="cls-5" x="51" y="63.86" width="25.29" height="10.09" rx="2"/><rect class="cls-7" x="79.66" y="63.86" width="25.29" height="10.09" rx="2"/><rect class="cls-8" x="108.33" y="63.86" width="25.29" height="10.09" rx="2"/><rect class="cls-5" x="51" y="87.51" width="82.62" height="17.51" rx="2"/><rect class="cls-3" x="55.52" y="92.29" width="57.17" height="7.95" rx="2"/><rect class="cls-9" x="51" y="113.77" width="82.62" height="17.51" rx="2"/><rect class="cls-5" x="55.52" y="118.55" width="57.17" height="7.95" rx="2"/><rect class="cls-9" x="51" y="140.04" width="82.62" height="17.51" rx="2"/><rect class="cls-5" x="55.52" y="144.82" width="57.17" height="7.95" rx="2"/><rect class="cls-9" x="51" y="166.3" width="82.62" height="17.51" rx="2"/><rect class="cls-5" x="55.52" y="171.09" width="57.17" height="7.95" rx="2"/><rect class="cls-9" x="51" y="192.57" width="82.62" height="17.51" rx="2"/><rect class="cls-5" x="55.52" y="197.35" width="57.17" height="7.95" rx="2"/><rect class="cls-10" x="308.21" y="155.41" width="36.95" height="44.25"/><rect class="cls-10" x="345.16" y="155.41" width="36.95" height="44.25"/><rect class="cls-10" x="345.16" y="111.16" width="36.95" height="44.25"/><rect class="cls-10" x="271.26" y="66.9" width="36.95" height="44.25"/><rect class="cls-10" x="345.16" y="66.9" width="36.95" height="44.25"/><rect class="cls-10" x="308.21" y="66.9" width="36.95" height="44.25"/><rect class="cls-10" x="234.31" y="155.41" width="36.95" height="44.25"/><rect class="cls-10" x="234.31" y="111.16" width="36.95" height="44.25"/><rect class="cls-10" x="271.26" y="111.16" width="36.95" height="44.25"/><rect class="cls-10" x="308.21" y="111.16" width="36.95" height="44.25"/><rect class="cls-10" x="197.36" y="111.16" width="36.95" height="44.25"/><rect class="cls-10" x="271.26" y="155.41" width="36.95" height="44.25"/><rect class="cls-10" x="234.31" y="66.9" width="36.95" height="44.25"/><rect class="cls-10" x="197.36" y="155.41" width="36.95" height="44.25"/><path class="cls-10" d="M173,318.28v37.54a6.7,6.7,0,0,0,6.7,6.71H210V318.28Z" transform="translate(-12.62 -118.62)"/><path class="cls-10" d="M394.73,362.53H425a6.7,6.7,0,0,0,6.7-6.71V318.28H394.73Z" transform="translate(-12.62 -118.62)"/><rect class="cls-10" x="382.11" y="155.41" width="36.95" height="44.25"/><rect class="cls-10" x="345.16" y="199.66" width="36.95" height="44.25"/><rect class="cls-10" x="197.36" y="66.9" width="36.95" height="44.25"/><path class="cls-10" d="M425,185.52H394.73v44.26h36.95V192.23A6.71,6.71,0,0,0,425,185.52Z" transform="translate(-12.62 -118.62)"/><rect class="cls-10" x="308.21" y="199.66" width="36.95" height="44.25"/><rect class="cls-10" x="382.11" y="111.16" width="36.95" height="44.25"/><rect class="cls-10" x="160.41" y="111.16" width="36.95" height="44.25"/><path class="cls-10" d="M210,185.52H179.73a6.71,6.71,0,0,0-6.7,6.71v37.55H210Z" transform="translate(-12.62 -118.62)"/><rect class="cls-10" x="160.41" y="155.41" width="36.95" height="44.25"/><rect class="cls-10" x="271.26" y="199.66" width="36.95" height="44.25"/><rect class="cls-10" x="234.31" y="199.66" width="36.95" height="44.25"/><rect class="cls-10" x="197.36" y="199.66" width="36.95" height="44.25"/><rect class="cls-11" x="160.41" y="66.9" width="258.65" height="177" rx="6.7"/><rect class="cls-7" x="229.39" y="35.98" width="120.69" height="19.89" rx="3"/><polyline class="cls-12" points="374.02 53.49 383.67 45.93 374.02 38.36"/><polyline class="cls-12" points="205.44 38.36 195.8 45.93 205.44 53.49"/><rect class="cls-13" x="201.95" y="72.11" width="27.77" height="7" rx="2"/><rect class="cls-7" x="238.9" y="116.95" width="27.77" height="7" rx="2"/><rect class="cls-14" x="312.8" y="161.25" width="27.77" height="7" rx="2"/><rect class="cls-15" x="349.75" y="116.95" width="27.77" height="7" rx="2"/><rect class="cls-5" x="238.9" y="205.3" width="27.77" height="7" rx="2"/><rect class="cls-16" x="238.9" y="215.98" width="27.77" height="7" rx="2"/><rect class="cls-17" x="349.75" y="127.79" width="27.77" height="7" rx="2"/></svg>