<svg id="Layer_1" data-name="Layer 1" xmlns="http://www.w3.org/2000/svg" viewBox="0 0 449.49 336.63"><defs><style>.cls-1,.cls-11,.cls-5{fill:#f9ae9e;}.cls-1{opacity:0.5;}.cls-2{fill:#fff;}.cls-10,.cls-3{fill:#6c757d;}.cls-4,.cls-6{fill:#eae9e9;}.cls-6{stroke:#e5e5e5;}.cls-6,.cls-8{stroke-miterlimit:10;}.cls-7{fill:#e5e5e5;}.cls-8{fill:none;stroke:#ef8080;stroke-width:2px;}.cls-9{fill:#f7f8f8;}.cls-10{opacity:0.43;}.cls-11{opacity:0.25;}.cls-12{fill:#9da0a6;}</style></defs><path class="cls-1" d="M209.31,115.18c-59.68,20.17-74.87,1.57-111.66,23.89C49.93,168,37.74,222.21,36.54,228c-3.81,18.19-9.92,47.42,5,73.33,19,33,44.15,53.41,78.33,74.45,13.39,8.24,25.1,15.33,42.63,20.73,7.59,2.33,36,10.41,73.89,4.44,45.12-7.1,56-26.59,115.15-56.29,69.9-35.09,80.88-20.67,101.11-43.33,43.29-48.49,39.83-158-23.89-207.78C377.34,53.39,308.34,69.1,299.31,71.29,259.63,80.94,260.18,98,209.31,115.18Z" transform="translate(-32.01 -66.43)"/><path class="cls-2" d="M455.58,118.52H178.75v48H467.41V130.34A11.83,11.83,0,0,0,455.58,118.52Z" transform="translate(-32.01 -66.43)"/><rect class="cls-3" x="153.7" y="62.5" width="54.02" height="11.8" rx="2"/><rect class="cls-4" x="215.99" y="62.5" width="164.36" height="11.8" rx="2"/><rect class="cls-5" x="387.13" y="62.5" width="37.56" height="11.8" rx="2"/><line class="cls-6" x1="146.74" y1="82.21" x2="435.4" y2="82.21"/><rect class="cls-4" x="153.7" y="87.62" width="7.01" height="7.01" rx="1"/><path class="cls-4" d="M178.75,352.37H455.58a11.83,11.83,0,0,0,11.83-11.83V166.47H178.75Z" transform="translate(-32.01 -66.43)"/><rect class="cls-2" x="214.8" y="101.54" width="152.54" height="180.25" rx="4.5"/><path class="cls-4" d="M394.85,169.47a3,3,0,0,1,3,3V343.72a3,3,0,0,1-3,3H251.31a3,3,0,0,1-3-3V172.47a3,3,0,0,1,3-3H394.85m0-3H251.31a6,6,0,0,0-6,6V343.72a6,6,0,0,0,6,6H394.85a6,6,0,0,0,6-6V172.47a6,6,0,0,0-6-6Z" transform="translate(-32.01 -66.43)"/><rect class="cls-4" x="198.24" y="87.62" width="29.28" height="7.01" rx="1"/><rect class="cls-4" x="164.84" y="87.62" width="7.01" height="7.01" rx="1"/><rect class="cls-4" x="175.97" y="87.62" width="18.14" height="7.01" rx="1"/><rect class="cls-4" x="231.65" y="87.62" width="7.01" height="7.01" rx="1"/><rect class="cls-4" x="265.05" y="87.62" width="18.14" height="7.01" rx="1"/><rect class="cls-4" x="253.92" y="87.62" width="7.01" height="7.01" rx="1"/><rect class="cls-4" x="242.78" y="87.62" width="7.01" height="7.01" rx="1"/><path class="cls-7" d="M84.38,118.52a11.83,11.83,0,0,0-11.83,11.82v210.2a11.83,11.83,0,0,0,11.83,11.83h94.37V118.52Z" transform="translate(-32.01 -66.43)"/><rect class="cls-8" x="40.55" y="52.08" width="394.85" height="233.85" rx="11.82"/><circle class="cls-5" cx="60.86" cy="71.88" r="12.08"/><path class="cls-9" d="M100.52,136.56h-.64a7,7,0,0,0-.81-2l.45-.45a1,1,0,0,0,0-1.42h0l-1.07-1.06a1,1,0,0,0-1.41,0h0l-.44.44a7.72,7.72,0,0,0-2-.81v-.63a1,1,0,0,0-1-1h-1.5a1,1,0,0,0-1,1v.63a7.34,7.34,0,0,0-2,.82l-.45-.45a1,1,0,0,0-1.41,0h0l-1.06,1.06a1,1,0,0,0,0,1.42h0l.45.45a7,7,0,0,0-.81,2h-.64a1,1,0,0,0-1,1v1.5a1,1,0,0,0,1,1h.64a7.06,7.06,0,0,0,.81,2l-.45.44a1,1,0,0,0,0,1.42h0L87.29,145a1,1,0,0,0,1.41,0h0l.44-.45a7,7,0,0,0,2,.81V146a1,1,0,0,0,1,1h1.5a1,1,0,0,0,1-1v-.63a7.24,7.24,0,0,0,2-.81L97,145a1,1,0,0,0,1.41,0h0l1.06-1.07a1,1,0,0,0,0-1.42h0l-.45-.45a7,7,0,0,0,.81-2h.64a1,1,0,0,0,1-1v-1.5A1,1,0,0,0,100.52,136.56Zm-7.65,5.17a3.42,3.42,0,1,1,3.42-3.41A3.42,3.42,0,0,1,92.87,141.73Z" transform="translate(-32.01 -66.43)"/><path class="cls-5" d="M111.22,129.93h3.55V141.4c0,2.55,1.32,3.87,3.58,3.87S122,144,122,141.4V129.93h3.58v11.44c0,4.89-3.35,7.27-7.24,7.27s-7.08-2.38-7.08-7.27Z" transform="translate(-32.01 -66.43)"/><path class="cls-5" d="M129,129.93h4l5.63,13.78,5.64-13.78h4v18.53h-3.55V136.41L140,148.46h-2.69l-4.77-12.05v12.05H129Z" transform="translate(-32.01 -66.43)"/><path class="cls-5" d="M157.9,148.64c-3.68,0-6.52-2-6.58-5.52h3.81a2.47,2.47,0,0,0,2.69,2.47c1.68,0,2.67-.93,2.67-2.25,0-4-9.14-1.6-9.11-8.31,0-3.35,2.58-5.36,6.24-5.36s6.12,1.93,6.35,5.28h-3.91a2.37,2.37,0,0,0-2.54-2.2,2.08,2.08,0,0,0-2.44,2.17c0,3.72,9.09,1.65,9.09,8.18C164.17,146,161.94,148.64,157.9,148.64Z" transform="translate(-32.01 -66.43)"/><rect class="cls-5" x="52.33" y="93.52" width="25.29" height="10.09" rx="2"/><rect class="cls-3" x="81" y="93.52" width="25.29" height="10.09" rx="2"/><rect class="cls-10" x="109.67" y="93.52" width="25.29" height="10.09" rx="2"/><rect class="cls-5" x="52.33" y="117.17" width="82.62" height="17.51" rx="2"/><rect class="cls-7" x="56.86" y="121.95" width="57.17" height="7.95" rx="2"/><rect class="cls-11" x="52.33" y="143.44" width="82.62" height="17.51" rx="2"/><rect class="cls-5" x="56.86" y="148.22" width="57.17" height="7.95" rx="2"/><rect class="cls-11" x="52.33" y="169.7" width="82.62" height="17.51" rx="2"/><rect class="cls-5" x="56.86" y="174.48" width="57.17" height="7.95" rx="2"/><rect class="cls-11" x="52.33" y="195.97" width="82.62" height="17.51" rx="2"/><rect class="cls-5" x="56.86" y="200.75" width="57.17" height="7.95" rx="2"/><rect class="cls-11" x="52.33" y="222.23" width="82.62" height="17.51" rx="2"/><rect class="cls-5" x="56.86" y="227.01" width="57.17" height="7.95" rx="2"/><rect class="cls-3" x="260.91" y="112.56" width="60.32" height="9.22" rx="2"/><rect class="cls-12" x="229.54" y="136.13" width="42.42" height="4.61" rx="2"/><rect class="cls-12" x="242.45" y="144.18" width="56.75" height="4.61" rx="2"/><rect class="cls-12" x="242.45" y="152.22" width="73.68" height="4.61" rx="2"/><rect class="cls-12" x="242.45" y="160.27" width="50.29" height="4.61" rx="2"/><rect class="cls-12" x="242.45" y="168.32" width="56.75" height="4.61" rx="2"/><rect class="cls-12" x="229.54" y="181.62" width="82.97" height="4.61" rx="2"/><rect class="cls-12" x="244.62" y="189.67" width="79.96" height="4.61" rx="2"/><rect class="cls-12" x="244.62" y="197.71" width="72.32" height="4.61" rx="2"/><rect class="cls-12" x="244.62" y="205.76" width="53.06" height="4.61" rx="2"/><rect class="cls-12" x="229.54" y="221.37" width="63.1" height="4.61" rx="2"/><rect class="cls-12" x="244.62" y="229.42" width="46.64" height="4.61" rx="2"/><rect class="cls-12" x="244.62" y="237.46" width="58.26" height="4.61" rx="2"/><rect class="cls-12" x="244.62" y="245.51" width="42.21" height="4.61" rx="2"/><rect class="cls-12" x="244.62" y="253.56" width="65.14" height="4.61" rx="2"/><rect class="cls-12" x="244.62" y="261.6" width="49.39" height="4.61" rx="2"/></svg>