<svg id="Layer_1" data-name="Layer 1" xmlns="http://www.w3.org/2000/svg" viewBox="0 0 452.45 315.47"><defs><style>.cls-1,.cls-5,.cls-9{fill:#f9ae9e;}.cls-1{opacity:0.5;}.cls-2{fill:#fff;}.cls-3{fill:#e5e5e5;}.cls-4{fill:none;stroke:#ef8080;stroke-miterlimit:10;stroke-width:2px;}.cls-6{fill:#f7f8f8;}.cls-7,.cls-8{fill:#6c757d;}.cls-8{opacity:0.43;}.cls-9{opacity:0.25;}.cls-10,.cls-15{fill:#dc3645;}.cls-10,.cls-11,.cls-13{opacity:0.14;}.cls-11,.cls-12{fill:#426db4;}.cls-13,.cls-14{fill:#168754;}</style></defs><path class="cls-1" d="M280.83,152.93C234.08,169.45,197.5,83.83,138.06,89,81.22,94,28.33,172.51,26.23,247.45,24.87,295.86,44.73,362.77,99,390.78c9.38,4.84,34.24,17.67,64.06,12.15C220.7,392.25,221.21,327,275.12,299.11c72.82-37.65,144.89,43.71,184.05,10.48,42.53-36.1,11.88-178.3-58.89-205.55-27.36-10.54-53.34-3.34-53.34-3.34C309.49,111.09,307.55,143.48,280.83,152.93Z" transform="translate(-26.16 -88.81)"/><path class="cls-2" d="M442.63,131.31H165.79V365.17H442.63a11.83,11.83,0,0,0,11.82-11.83V143.14A11.83,11.83,0,0,0,442.63,131.31Z" transform="translate(-26.16 -88.81)"/><path class="cls-3" d="M71.42,131.31A11.83,11.83,0,0,0,59.6,143.14v210.2a11.83,11.83,0,0,0,11.82,11.83h94.37V131.31Z" transform="translate(-26.16 -88.81)"/><rect class="cls-4" x="33.43" y="42.5" width="394.85" height="233.85" rx="11.82"/><circle class="cls-5" cx="53.75" cy="62.31" r="12.08"/><path class="cls-6" d="M87.56,149.36h-.63a7.34,7.34,0,0,0-.82-2l.45-.45a1,1,0,0,0,0-1.42h0l-1.06-1.07a1,1,0,0,0-1.42,0h0l-.45.45a7.31,7.31,0,0,0-2-.81v-.63a1,1,0,0,0-1-1h-1.5a1,1,0,0,0-1,1v.63a7.51,7.51,0,0,0-2,.81l-.44-.44a1,1,0,0,0-1.42,0h0l-1.07,1.06a1,1,0,0,0,0,1.42h0l.45.45a7,7,0,0,0-.81,2h-.63a1,1,0,0,0-1,1v1.51a1,1,0,0,0,1,1h.63a7.31,7.31,0,0,0,.81,2l-.45.45a1,1,0,0,0,0,1.42h0l1.07,1.07a1,1,0,0,0,1.42,0h0l.45-.45a7.31,7.31,0,0,0,2,.81v.63a1,1,0,0,0,1,1h1.5a1,1,0,0,0,1-1v-.63a7.31,7.31,0,0,0,2-.81l.45.44a1,1,0,0,0,1.42,0h0l1.06-1.06a1,1,0,0,0,0-1.42h0l-.44-.45a7.65,7.65,0,0,0,.81-2h.63a1,1,0,0,0,1-1v-1.51A1,1,0,0,0,87.56,149.36Zm-7.65,5.17a3.42,3.42,0,1,1,3.42-3.42A3.42,3.42,0,0,1,79.91,154.53Z" transform="translate(-26.16 -88.81)"/><path class="cls-5" d="M98.26,142.73h3.56V154.2c0,2.54,1.32,3.87,3.58,3.87s3.6-1.33,3.6-3.87V142.73h3.58v11.44c0,4.88-3.35,7.27-7.24,7.27s-7.08-2.39-7.08-7.27Z" transform="translate(-26.16 -88.81)"/><path class="cls-5" d="M116,142.73h4l5.64,13.78,5.63-13.78h4v18.53h-3.55v-12l-4.75,12h-2.69l-4.77-12v12H116Z" transform="translate(-26.16 -88.81)"/><path class="cls-5" d="M144.94,161.44c-3.68,0-6.52-2-6.57-5.52h3.81a2.47,2.47,0,0,0,2.69,2.47c1.67,0,2.66-.93,2.66-2.26,0-4-9.14-1.59-9.11-8.3,0-3.35,2.59-5.37,6.24-5.37s6.12,1.94,6.35,5.29H147.1a2.39,2.39,0,0,0-2.54-2.21,2.1,2.1,0,0,0-2.44,2.18c0,3.72,9.09,1.65,9.09,8.17C151.21,158.81,149,161.44,144.94,161.44Z" transform="translate(-26.16 -88.81)"/><rect class="cls-5" x="45.22" y="83.94" width="25.29" height="10.09" rx="2"/><rect class="cls-7" x="73.89" y="83.94" width="25.29" height="10.09" rx="2"/><rect class="cls-8" x="102.56" y="83.94" width="25.29" height="10.09" rx="2"/><rect class="cls-5" x="45.22" y="107.59" width="82.62" height="17.51" rx="2"/><rect class="cls-3" x="49.75" y="112.37" width="57.17" height="7.95" rx="2"/><rect class="cls-9" x="45.22" y="133.86" width="82.62" height="17.51" rx="2"/><rect class="cls-5" x="49.75" y="138.64" width="57.17" height="7.95" rx="2"/><rect class="cls-9" x="45.22" y="160.12" width="82.62" height="17.51" rx="2"/><rect class="cls-5" x="49.75" y="164.9" width="57.17" height="7.95" rx="2"/><rect class="cls-9" x="45.22" y="186.39" width="82.62" height="17.51" rx="2"/><rect class="cls-5" x="49.75" y="191.17" width="57.17" height="7.95" rx="2"/><rect class="cls-9" x="45.22" y="212.65" width="82.62" height="17.51" rx="2"/><rect class="cls-5" x="49.75" y="217.43" width="57.17" height="7.95" rx="2"/><rect class="cls-5" x="150.78" y="53.92" width="81.62" height="15.92" rx="3"/><rect class="cls-10" x="150.78" y="79.59" width="265" height="44.27" rx="3"/><rect class="cls-11" x="150.78" y="135.6" width="265" height="44.27" rx="3"/><rect class="cls-12" x="156.92" y="141.48" width="75.48" height="8.19" rx="2"/><rect class="cls-12" x="156.92" y="153.48" width="212.33" height="8.19" rx="2"/><rect class="cls-7" x="156.92" y="165.79" width="28.58" height="8.19" rx="2"/><rect class="cls-7" x="191.59" y="165.79" width="28.58" height="8.19" rx="2"/><rect class="cls-13" x="150.78" y="219.43" width="265" height="44.27" rx="3"/><rect class="cls-14" x="156.92" y="225.31" width="89.42" height="8.19" rx="2"/><rect class="cls-14" x="156.92" y="237.31" width="223.33" height="8.19" rx="2"/><rect class="cls-7" x="156.92" y="249.62" width="28.58" height="8.19" rx="2"/><rect class="cls-7" x="191.59" y="249.62" width="28.58" height="8.19" rx="2"/><rect class="cls-5" x="150.78" y="194.36" width="81.62" height="15.92" rx="3"/><rect class="cls-15" x="156.92" y="85.47" width="85.45" height="8.19" rx="2"/><rect class="cls-15" x="156.92" y="97.47" width="236.79" height="8.19" rx="2"/><rect class="cls-7" x="156.92" y="109.78" width="28.58" height="8.19" rx="2"/><rect class="cls-7" x="191.59" y="109.78" width="28.58" height="8.19" rx="2"/></svg>