<svg id="Layer_1" data-name="Layer 1" xmlns="http://www.w3.org/2000/svg" viewBox="0 0 452.37 326.87"><defs><style>.cls-1,.cls-12,.cls-8{fill:#f9ae9e;}.cls-1{opacity:0.5;}.cls-2,.cls-3{fill:#fff;}.cls-13,.cls-14,.cls-15,.cls-16,.cls-17,.cls-3,.cls-4,.cls-5{stroke:#d7d7d9;}.cls-13,.cls-14,.cls-15,.cls-16,.cls-17,.cls-18,.cls-3,.cls-4,.cls-5,.cls-7{stroke-miterlimit:10;}.cls-10,.cls-11,.cls-4{fill:#6c757d;}.cls-5{fill:#e6e7e8;}.cls-6{fill:#e5e5e5;}.cls-18,.cls-7{fill:none;stroke:#ef8080;}.cls-7{stroke-width:2px;}.cls-9{fill:#f7f8f8;}.cls-11{opacity:0.43;}.cls-12{opacity:0.25;}.cls-13{fill:#168754;}.cls-14{fill:#fec111;}.cls-15{fill:#30c4ea;}.cls-16{fill:#426db4;}.cls-17{fill:#dc3645;}</style></defs><path class="cls-1" d="M267.5,143.61c-66.74,8.14-94.31-62.17-156.67-48.89-44.5,9.48-68.5,53.4-73.33,62.22-5.15,9.43-34.65,63.39-7.78,105.56,22.67,35.57,70.09,38.68,75.56,39,44.11,2.24,66.17-28.94,83.89-17.62,17.46,11.16,0,43.25,13.33,73.66,22.74,51.72,129.19,86,200,42.78,0,0,68.87-41.62,68.44-167-.13-39.26-11.11-62.73-14-69.15-12.15-27-41.91-65.83-80.55-70.56C330.23,88,321.38,137,267.5,143.61Z" transform="translate(-18.58 -93.05)"/><path class="cls-2" d="M442.63,131.31H165.79V365.17H442.63a11.83,11.83,0,0,0,11.82-11.83V143.14A11.83,11.83,0,0,0,442.63,131.31Z" transform="translate(-18.58 -93.05)"/><rect class="cls-3" x="187.89" y="70.11" width="38.83" height="17.24"/><rect class="cls-3" x="226.72" y="70.11" width="38.83" height="17.24"/><rect class="cls-3" x="304.38" y="121.83" width="38.83" height="17.24"/><rect class="cls-3" x="304.38" y="139.07" width="38.83" height="17.24"/><rect class="cls-3" x="265.55" y="70.11" width="38.83" height="17.24"/><rect class="cls-3" x="187.89" y="139.07" width="38.83" height="17.24"/><rect class="cls-3" x="265.55" y="225.27" width="38.83" height="17.24"/><rect class="cls-3" x="226.72" y="225.27" width="38.83" height="17.24"/><rect class="cls-3" x="343.21" y="225.27" width="38.83" height="17.24"/><rect class="cls-3" x="187.89" y="225.27" width="38.83" height="17.24"/><rect class="cls-3" x="187.89" y="156.31" width="38.83" height="17.24"/><rect class="cls-3" x="226.72" y="104.59" width="38.83" height="17.24"/><rect class="cls-3" x="226.72" y="87.35" width="38.83" height="17.24"/><rect class="cls-3" x="343.21" y="208.03" width="38.83" height="17.24"/><rect class="cls-3" x="226.72" y="121.83" width="38.83" height="17.24"/><rect class="cls-3" x="265.55" y="208.03" width="38.83" height="17.24"/><path class="cls-4" d="M359.79,249.36H325a2,2,0,0,0-2,2v30.48a2,2,0,0,0,2,2h34.83a2,2,0,0,0,2-2V251.36A2,2,0,0,0,359.79,249.36Z" transform="translate(-18.58 -93.05)"/><rect class="cls-3" x="226.72" y="173.55" width="38.83" height="17.24"/><rect class="cls-3" x="226.72" y="208.03" width="38.83" height="17.24"/><rect class="cls-3" x="226.72" y="190.79" width="38.83" height="17.24"/><rect class="cls-3" x="265.55" y="242.51" width="38.83" height="17.24"/><rect class="cls-3" x="382.04" y="225.27" width="38.83" height="17.24"/><rect class="cls-3" x="304.38" y="242.51" width="38.83" height="17.24"/><path class="cls-3" d="M400.62,352.8H432.4a6.88,6.88,0,0,0,7.05-6.7V335.56H400.62Z" transform="translate(-18.58 -93.05)"/><rect class="cls-3" x="343.21" y="242.51" width="38.83" height="17.24"/><rect class="cls-3" x="187.89" y="242.51" width="38.83" height="17.24"/><rect class="cls-5" x="162.22" y="225.27" width="25.67" height="17.24"/><rect class="cls-5" x="162.22" y="190.79" width="25.67" height="17.24"/><path class="cls-5" d="M180.8,335.56V346.1c0,3.7,2.08,6.7,4.65,6.7h21V335.56Z" transform="translate(-18.58 -93.05)"/><rect class="cls-5" x="162.22" y="208.03" width="25.67" height="17.24"/><rect class="cls-3" x="382.04" y="87.35" width="38.83" height="17.24"/><rect class="cls-3" x="382.04" y="70.11" width="38.83" height="17.24"/><rect class="cls-3" x="382.04" y="208.03" width="38.83" height="17.24"/><path class="cls-5" d="M432.4,145.92H400.62v17.24h38.83V152.62A6.88,6.88,0,0,0,432.4,145.92Z" transform="translate(-18.58 -93.05)"/><rect class="cls-3" x="382.04" y="173.55" width="38.83" height="17.24"/><rect class="cls-3" x="382.04" y="190.79" width="38.83" height="17.24"/><rect class="cls-3" x="382.04" y="156.31" width="38.83" height="17.24"/><rect class="cls-3" x="226.72" y="242.51" width="38.83" height="17.24"/><rect class="cls-5" x="265.55" y="52.87" width="38.83" height="17.24"/><rect class="cls-3" x="343.21" y="70.11" width="38.83" height="17.24"/><rect class="cls-5" x="162.22" y="173.55" width="25.67" height="17.24"/><rect class="cls-5" x="304.38" y="52.87" width="38.83" height="17.24"/><rect class="cls-5" x="343.21" y="52.87" width="38.83" height="17.24"/><rect class="cls-3" x="343.21" y="87.35" width="38.83" height="17.24"/><rect class="cls-3" x="343.21" y="139.07" width="38.83" height="17.24"/><rect class="cls-3" x="343.21" y="121.83" width="38.83" height="17.24"/><rect class="cls-3" x="343.21" y="104.59" width="38.83" height="17.24"/><rect class="cls-5" x="162.22" y="104.59" width="25.67" height="17.24"/><rect class="cls-5" x="162.22" y="121.83" width="25.67" height="17.24"/><rect class="cls-5" x="162.22" y="139.07" width="25.67" height="17.24"/><rect class="cls-5" x="162.22" y="156.31" width="25.67" height="17.24"/><rect class="cls-5" x="226.72" y="52.87" width="38.83" height="17.24"/><path class="cls-5" d="M206.46,145.92h-21c-2.57,0-4.65,3-4.65,6.7v10.54h25.66Z" transform="translate(-18.58 -93.05)"/><rect class="cls-5" x="162.22" y="87.35" width="25.67" height="17.24"/><rect class="cls-5" x="187.89" y="52.87" width="38.83" height="17.24"/><rect class="cls-5" x="162.22" y="70.11" width="25.67" height="17.24"/><path class="cls-6" d="M71.42,131.31A11.83,11.83,0,0,0,59.6,143.14v210.2a11.83,11.83,0,0,0,11.82,11.83h94.37V131.31Z" transform="translate(-18.58 -93.05)"/><rect class="cls-7" x="41.02" y="38.26" width="394.85" height="233.85" rx="11.82"/><circle class="cls-8" cx="61.34" cy="58.07" r="12.08"/><path class="cls-9" d="M87.56,149.36h-.63a7.34,7.34,0,0,0-.82-2l.45-.45a1,1,0,0,0,0-1.42h0l-1.06-1.07a1,1,0,0,0-1.42,0h0l-.45.45a7.31,7.31,0,0,0-2-.81v-.63a1,1,0,0,0-1-1h-1.5a1,1,0,0,0-1,1v.63a7.51,7.51,0,0,0-2,.81l-.44-.44a1,1,0,0,0-1.42,0h0l-1.07,1.06a1,1,0,0,0,0,1.42h0l.45.45a7,7,0,0,0-.81,2h-.63a1,1,0,0,0-1,1v1.51a1,1,0,0,0,1,1h.63a7.31,7.31,0,0,0,.81,2l-.45.45a1,1,0,0,0,0,1.42h0l1.07,1.07a1,1,0,0,0,1.42,0h0l.45-.45a7.31,7.31,0,0,0,2,.81v.63a1,1,0,0,0,1,1h1.5a1,1,0,0,0,1-1v-.63a7.31,7.31,0,0,0,2-.81l.45.44a1,1,0,0,0,1.42,0h0l1.06-1.06a1,1,0,0,0,0-1.42h0l-.44-.45a7.65,7.65,0,0,0,.81-2h.63a1,1,0,0,0,1-1v-1.51A1,1,0,0,0,87.56,149.36Zm-7.65,5.17a3.42,3.42,0,1,1,3.42-3.42A3.42,3.42,0,0,1,79.91,154.53Z" transform="translate(-18.58 -93.05)"/><path class="cls-8" d="M98.26,142.73h3.56V154.2c0,2.54,1.32,3.87,3.58,3.87s3.6-1.33,3.6-3.87V142.73h3.58v11.44c0,4.88-3.35,7.27-7.24,7.27s-7.08-2.39-7.08-7.27Z" transform="translate(-18.58 -93.05)"/><path class="cls-8" d="M116,142.73h4l5.64,13.78,5.63-13.78h4v18.53h-3.55v-12l-4.75,12h-2.69l-4.77-12v12H116Z" transform="translate(-18.58 -93.05)"/><path class="cls-8" d="M144.94,161.44c-3.68,0-6.52-2-6.57-5.52h3.81a2.47,2.47,0,0,0,2.69,2.47c1.67,0,2.66-.93,2.66-2.26,0-4-9.14-1.59-9.11-8.3,0-3.35,2.59-5.37,6.24-5.37s6.12,1.94,6.35,5.29H147.1a2.39,2.39,0,0,0-2.54-2.21,2.1,2.1,0,0,0-2.44,2.18c0,3.72,9.09,1.65,9.09,8.17C151.21,158.81,149,161.44,144.94,161.44Z" transform="translate(-18.58 -93.05)"/><rect class="cls-8" x="52.81" y="79.7" width="25.29" height="10.09" rx="2"/><rect class="cls-10" x="81.48" y="79.7" width="25.29" height="10.09" rx="2"/><rect class="cls-11" x="110.14" y="79.7" width="25.29" height="10.09" rx="2"/><rect class="cls-8" x="52.81" y="103.35" width="82.62" height="17.51" rx="2"/><rect class="cls-6" x="57.33" y="108.13" width="57.17" height="7.95" rx="2"/><rect class="cls-12" x="52.81" y="129.62" width="82.62" height="17.51" rx="2"/><rect class="cls-8" x="57.33" y="134.4" width="57.17" height="7.95" rx="2"/><rect class="cls-12" x="52.81" y="155.88" width="82.62" height="17.51" rx="2"/><rect class="cls-8" x="57.33" y="160.66" width="57.17" height="7.95" rx="2"/><rect class="cls-12" x="52.81" y="182.15" width="82.62" height="17.51" rx="2"/><rect class="cls-8" x="57.33" y="186.93" width="57.17" height="7.95" rx="2"/><rect class="cls-12" x="52.81" y="208.41" width="82.62" height="17.51" rx="2"/><rect class="cls-8" x="57.33" y="213.19" width="57.17" height="7.95" rx="2"/><path class="cls-13" d="M321,180.4H286.13a2,2,0,0,0-2,2v82.2a2,2,0,0,0,2,2H321a2,2,0,0,0,2-2V182.4A2,2,0,0,0,321,180.4Z" transform="translate(-18.58 -93.05)"/><path class="cls-14" d="M321,266.6H286.13a2,2,0,0,0-2,2v30.48a2,2,0,0,0,2,2H321a2,2,0,0,0,2-2V268.6A2,2,0,0,0,321,266.6Z" transform="translate(-18.58 -93.05)"/><rect class="cls-15" x="343.21" y="156.31" width="38.83" height="17.24" rx="2"/><path class="cls-14" d="M398.62,266.6H363.79a2,2,0,0,0-2,2v30.48a2,2,0,0,0,2,2h34.83a2,2,0,0,0,2-2V268.6A2,2,0,0,0,398.62,266.6Z" transform="translate(-18.58 -93.05)"/><path class="cls-16" d="M359.79,283.84H325a2,2,0,0,0-2,2v47.72a2,2,0,0,0,2,2h34.83a2,2,0,0,0,2-2V285.84A2,2,0,0,0,359.79,283.84Z" transform="translate(-18.58 -93.05)"/><path class="cls-4" d="M282.13,232.12H247.3a2,2,0,0,0-2,2V264.6a2,2,0,0,0,2,2h34.83a2,2,0,0,0,2-2V234.12A2,2,0,0,0,282.13,232.12Z" transform="translate(-18.58 -93.05)"/><path class="cls-17" d="M243.3,180.4H208.46a2,2,0,0,0-2,2v47.72a2,2,0,0,0,2,2H243.3a2,2,0,0,0,2-2V182.4A2,2,0,0,0,243.3,180.4Z" transform="translate(-18.58 -93.05)"/><path class="cls-17" d="M359.79,163.16H325a2,2,0,0,0-2,2v47.72a2,2,0,0,0,2,2h34.83a2,2,0,0,0,2-2V165.16A2,2,0,0,0,359.79,163.16Z" transform="translate(-18.58 -93.05)"/><path class="cls-16" d="M243.3,266.6H208.46a2,2,0,0,0-2,2v47.72a2,2,0,0,0,2,2H243.3a2,2,0,0,0,2-2V268.6A2,2,0,0,0,243.3,266.6Z" transform="translate(-18.58 -93.05)"/><path class="cls-13" d="M437.45,197.64H402.62a2,2,0,0,0-2,2v47.72a2,2,0,0,0,2,2h34.83a2,2,0,0,0,2-2V199.64A2,2,0,0,0,437.45,197.64Z" transform="translate(-18.58 -93.05)"/><rect class="cls-18" x="162.22" y="52.87" width="258.65" height="206.88" rx="6.7"/></svg>